<svg id="bitstamp-logo-white" xmlns="http://www.w3.org/2000/svg" width="300" height="67.8" viewBox="0 0 300 67.8">
  <g id="line" transform="translate(792 406)">
    <path id="Fill-10" d="M-792-338.3h259.7v-6.8H-792Z" fill="#4d4d4d"/>
    <path id="Fill-11" d="M-514.3-338.3H-492v-6.8h-22.3Z" fill="#4d4d4d"/>
  </g>
  <path id="text" d="M-741.4-355.4h9.3v-35h-9.3Zm-.9-45.1a5.352,5.352,0,0,1,1.6-4,5.512,5.512,0,0,1,4-1.5,5.354,5.354,0,0,1,4,1.5,5.417,5.417,0,0,1,1.6,4,5.352,5.352,0,0,1-1.6,4,5.512,5.512,0,0,1-4,1.5,5.677,5.677,0,0,1-4-1.5A5.2,5.2,0,0,1-742.3-400.5Zm31.6,10h9.5v7h-9.5v16.8a4.836,4.836,0,0,0,1.3,3.6,4.666,4.666,0,0,0,3.5,1.4,18.478,18.478,0,0,0,4.4-.6l1.2,6.9a31.193,31.193,0,0,1-7.8,1.1,14.034,14.034,0,0,1-4.7-.8,10.961,10.961,0,0,1-3.7-2.3,11.35,11.35,0,0,1-2.4-3.6,11.42,11.42,0,0,1-.8-4.6v-17.7h-6.4v-7h6.4v-10.3h8.9v10.1Zm15,9.7a9.071,9.071,0,0,1,1-4.3,12.665,12.665,0,0,1,2.7-3.4,13.97,13.97,0,0,1,4.2-2.2,18.528,18.528,0,0,1,5.4-.8,33.354,33.354,0,0,1,6.2.6,42.308,42.308,0,0,1,6.5,1.8l-2,6.6a33.318,33.318,0,0,0-5.1-1.6,21,21,0,0,0-4.8-.6,6.652,6.652,0,0,0-3.9,1,3.131,3.131,0,0,0-1.4,2.8,2.585,2.585,0,0,0,1.4,2.4,15.868,15.868,0,0,0,3.4,1.4c1.4.4,2.8.8,4.4,1.1a15.657,15.657,0,0,1,4.4,1.8,10.414,10.414,0,0,1,3.4,3.2,9.827,9.827,0,0,1,1.4,5.4,9.472,9.472,0,0,1-1,4.4,11.7,11.7,0,0,1-2.8,3.5,13.075,13.075,0,0,1-4.4,2.3,19.932,19.932,0,0,1-5.6.8,37.254,37.254,0,0,1-13.7-2.8l1.9-6.5a29.217,29.217,0,0,0,11.1,2.5,7.115,7.115,0,0,0,4.1-1.1,3.442,3.442,0,0,0,1.5-3,2.851,2.851,0,0,0-1.4-2.5,11.966,11.966,0,0,0-3.4-1.5c-1.4-.4-2.8-.8-4.4-1.2a16.977,16.977,0,0,1-4.4-1.8,10.122,10.122,0,0,1-3.4-3.1,8.7,8.7,0,0,1-1.3-5.2m45.9-9.7h9.5v7h-9.5v16.8a4.836,4.836,0,0,0,1.3,3.6,4.666,4.666,0,0,0,3.5,1.4,18.478,18.478,0,0,0,4.4-.6l1.2,6.9a31.193,31.193,0,0,1-7.8,1.1,14.034,14.034,0,0,1-4.7-.8,10.961,10.961,0,0,1-3.7-2.3A9.9,9.9,0,0,1-658-361a11.42,11.42,0,0,1-.8-4.6v-17.7h-6.4v-7h6.4v-10.3h8.9v10.1Zm24.2,24.4a4.75,4.75,0,0,0,1.7,3.6,6.439,6.439,0,0,0,4.3,1.5,7.833,7.833,0,0,0,5.8-2.3,8,8,0,0,0,2.2-5.9v-2.1a20.234,20.234,0,0,0-5.7-.7,10.04,10.04,0,0,0-6.1,1.6,5.129,5.129,0,0,0-2.2,4.3m-8.7.5a9.967,9.967,0,0,1,4.2-8.6c2.8-2,6.7-3,11.8-3,1.1,0,2.2.1,3.3.2s2.3.3,3.4.5v-1.9a5.479,5.479,0,0,0-1.9-4.4,7.742,7.742,0,0,0-5.2-1.7,29.815,29.815,0,0,0-11.4,2.5l-2.3-6.4a39.234,39.234,0,0,1,14.7-2.9,15.892,15.892,0,0,1,5.9,1,12.448,12.448,0,0,1,4.6,2.7,11.183,11.183,0,0,1,3,4.1,13.22,13.22,0,0,1,1.1,5.3v14.3a2.445,2.445,0,0,0,.6,1.8,2.14,2.14,0,0,0,1.8.7,4.1,4.1,0,0,0,1.1-.1,5.64,5.64,0,0,0,.7-.1l.6,6.7c-.8.1-1.5.3-2.3.4a20.082,20.082,0,0,1-2.5.1,7.779,7.779,0,0,1-4.6-1.3,6.988,6.988,0,0,1-2.8-3.5,16.438,16.438,0,0,1-5.2,3.5,16.3,16.3,0,0,1-6.2,1.2,15.88,15.88,0,0,1-5-.8,10.9,10.9,0,0,1-3.9-2.3,9.765,9.765,0,0,1-2.5-3.5,9.883,9.883,0,0,1-1-4.5m41.2-25h7.2l1.1,4.8a14.422,14.422,0,0,1,5-4.2,14.016,14.016,0,0,1,6.4-1.5,13.717,13.717,0,0,1,6.8,1.7,11.1,11.1,0,0,1,4.4,4.7,16.909,16.909,0,0,1,5.6-4.8,14.732,14.732,0,0,1,7-1.6,14.561,14.561,0,0,1,5.2.9,10.5,10.5,0,0,1,4.1,2.7,10.5,10.5,0,0,1,2.7,4.1,14.584,14.584,0,0,1,1,5.2v23.2h-9.1v-21.7a6.554,6.554,0,0,0-1.9-4.9,6.962,6.962,0,0,0-4.9-1.9,7.476,7.476,0,0,0-5.7,2.4,8.562,8.562,0,0,0-2.2,6.2v19.9h-9.1v-21.7a6.89,6.89,0,0,0-1.8-4.9,6.553,6.553,0,0,0-4.8-1.9,7.543,7.543,0,0,0-5.8,2.4,8.562,8.562,0,0,0-2.2,6.2v19.9h-9.1v-35.2Zm91.1,17.5a13.267,13.267,0,0,0-.7-4.5,9.051,9.051,0,0,0-1.9-3.5,8.855,8.855,0,0,0-2.8-2.3,7.323,7.323,0,0,0-3.6-.8,7.642,7.642,0,0,0-5.9,2.5,8.869,8.869,0,0,0-2.3,6.3v4.7a9.51,9.51,0,0,0,.6,3.5,8.751,8.751,0,0,0,1.7,2.8,6.765,6.765,0,0,0,2.6,1.8,8.808,8.808,0,0,0,3.3.6,8.627,8.627,0,0,0,3.6-.8,7.694,7.694,0,0,0,2.8-2.3,13.066,13.066,0,0,0,1.9-3.5,12.883,12.883,0,0,0,.7-4.5Zm-26-17.5h7.2l1.1,4.5a13.944,13.944,0,0,1,4.7-4,14.556,14.556,0,0,1,6.3-1.4,15.341,15.341,0,0,1,6.4,1.4,15.451,15.451,0,0,1,5,3.8,17.249,17.249,0,0,1,3.3,5.8,21.675,21.675,0,0,1,1.2,7.4,21.674,21.674,0,0,1-1.2,7.4,18.283,18.283,0,0,1-3.3,5.8,15.45,15.45,0,0,1-5,3.8,15,15,0,0,1-6.4,1.4,13.678,13.678,0,0,1-5.8-1.2,11.263,11.263,0,0,1-4.5-3.6v21.3h-9v-52.4Zm-233.4,26.2a7.648,7.648,0,0,1-5.7,2h-11.2v-14.5h11.2a8.422,8.422,0,0,1,5.7,2,6.856,6.856,0,0,1,2.1,5.2A6.291,6.291,0,0,1-761.4-364.4Zm-16.9-32.1H-768a7.26,7.26,0,0,1,5.2,1.9,6.136,6.136,0,0,1,2,4.9,6.254,6.254,0,0,1-2,4.8,7.652,7.652,0,0,1-5.2,1.8h-10.3v-13.4Zm26.1,20.5a12.311,12.311,0,0,0-6-4.5,10.772,10.772,0,0,0,4.7-4,11.091,11.091,0,0,0,1.8-6.3,11.936,11.936,0,0,0-1.1-5.1,11.083,11.083,0,0,0-3.1-4,14.269,14.269,0,0,0-4.7-2.6,18.894,18.894,0,0,0-6-.9H-792v6.4a7.042,7.042,0,0,1,7,7.1,7.042,7.042,0,0,1-7,7.1v5.8a7.042,7.042,0,0,1,7,7.1v1.1a7.042,7.042,0,0,1-7,7.1v6.4h26.5a17.54,17.54,0,0,0,6.2-1,13.745,13.745,0,0,0,4.9-2.7,11.775,11.775,0,0,0,3.2-4.2,11.908,11.908,0,0,0,1.2-5.4,12.226,12.226,0,0,0-2.2-7.4Z" transform="translate(792 406)" fill="#4d4d4d"/>
</svg>