<svg id="Component_53_1" data-name="Component 53 – 1" xmlns="http://www.w3.org/2000/svg" width="313.912" height="49.473" viewBox="0 0 313.912 49.473">
  <path id="Path_912" data-name="Path 912" d="M122.1,765.505c0,2.632.016,5.263-.006,7.895a4.366,4.366,0,0,1-3.232,4.145,4.286,4.286,0,0,1-5.121-2.616,5.433,5.433,0,0,1-.326-1.779c-.024-4.21-.006-8.421-.007-12.632a9.542,9.542,0,0,0-.059-1.409,4.526,4.526,0,0,0-4.47-3.825,4.582,4.582,0,0,0-4.566,3.73,8.179,8.179,0,0,0-.131,1.568c-.01,4.072,0,8.144-.015,12.216a6.683,6.683,0,0,1-.217,1.882,4.318,4.318,0,0,1-4.47,3.006,4.376,4.376,0,0,1-3.889-3.438,8.931,8.931,0,0,1-.14-1.73q-.01-6.4.011-12.8a4.393,4.393,0,0,0-1.923-3.761,4.32,4.32,0,0,0-4.709-.367,4.183,4.183,0,0,0-2.5,3.913c-.034,4.46-.013,8.92-.02,13.38a4.587,4.587,0,0,1-1.484,3.651,4.127,4.127,0,0,1-4.405.839,4.023,4.023,0,0,1-2.791-3.588c-.076-.822-.059-1.655-.06-2.483-.006-3.518,0-7.036-.007-10.553a13.362,13.362,0,0,0-.092-1.741,4.537,4.537,0,0,0-6.452-3.506,4.4,4.4,0,0,0-2.665,4.327q0,6.524-.005,13.047a7.1,7.1,0,0,1-.126,1.317,4.3,4.3,0,0,1-8.523-.7c-.029-4.986-.153-9.978.028-14.957a30.547,30.547,0,0,1,8.063-19.9,31.209,31.209,0,0,1,12.234-8.494A30.7,30.7,0,0,1,92,728.246a31.365,31.365,0,0,1,29.206,23.715,28.267,28.267,0,0,1,.9,7.312C122.081,761.35,122.1,763.428,122.1,765.505Z" transform="translate(-59.638 -728.227)" fill="#4d4d4d"/>
  <path id="Path_913" data-name="Path 913" d="M485.1,771.963c.018.34.041.584.042.828,0,1.3-.01,2.6.006,3.906a.7.7,0,0,1-.56.789,12.043,12.043,0,0,1-5.244.466,7.02,7.02,0,0,1-2.466-.674,5.34,5.34,0,0,1-2.586-3.218c-.192-.606-.342-1.225-.517-1.836-.075-.259-.165-.513-.3-.921-.282.258-.483.421-.659.608a23.55,23.55,0,0,1-5.8,4.538,17.312,17.312,0,0,1-9.418,2.147,15.259,15.259,0,0,1-6.862-1.716,12.015,12.015,0,0,1-6.235-8.93,17.907,17.907,0,0,1,.421-7.243,10.6,10.6,0,0,1,4.531-6.245,17.116,17.116,0,0,1,7.36-2.873c3.365-.486,6.739-.9,10.108-1.361.985-.134,1.965-.307,2.947-.462a3.721,3.721,0,0,0,3.306-3.145,8.851,8.851,0,0,0,.044-3.952,6.27,6.27,0,0,0-3.865-4.472,14.579,14.579,0,0,0-4.838-1.059,17.7,17.7,0,0,0-5.109.363,7.484,7.484,0,0,0-6,6.154,11.027,11.027,0,0,0-.069,1.157c-.066.578-.21.723-.8.727q-2.577.022-5.154,0c-.65-.005-.763-.113-.7-.727a18.637,18.637,0,0,1,1.591-6.575,10.529,10.529,0,0,1,4.351-4.555A21.345,21.345,0,0,1,461.122,731a27.982,27.982,0,0,1,5.39.083,24.2,24.2,0,0,1,6.13,1.368,12.123,12.123,0,0,1,5.037,3.108,9.928,9.928,0,0,1,2.65,5.955c.071.882.113,1.769.114,2.653q.013,12.382.012,24.764a8,8,0,0,0,.175,1.724,1.624,1.624,0,0,0,1.558,1.375c.52.039,1.044.049,1.566.04C484.168,772.064,484.58,772.007,485.1,771.963Zm-11.709-17.919c-.31.129-.552.237-.8.331-.955.364-1.9.771-2.87,1.076a71.343,71.343,0,0,1-7.888,1.5c-1.789.348-3.583.7-5.337,1.182a6.02,6.02,0,0,0-4.233,3.788,8.059,8.059,0,0,0-.067,5.771,6.3,6.3,0,0,0,4.483,4.089,14.28,14.28,0,0,0,14.127-4.285,9.155,9.155,0,0,0,2.3-5.909c.085-1.492.209-2.982.273-4.474C473.422,756.125,473.388,755.139,473.388,754.044Z" transform="translate(-301.624 -729.913)" fill="#4d4d4d"/>
  <path id="Path_914" data-name="Path 914" d="M719.118,757.1h-1.254q-14.548,0-29.1,0c-.433,0-.866.045-1.309.07a4.3,4.3,0,0,0-.066.583,23.057,23.057,0,0,0,1.382,7.471,13.224,13.224,0,0,0,2.32,3.909,9.444,9.444,0,0,0,4.851,3.038,12.627,12.627,0,0,0,7.435-.02,11.7,11.7,0,0,0,7.576-7.481c.075-.208.136-.421.2-.632a.931.931,0,0,1,.93-.7c1.994-.009,3.988,0,5.982.014.048,0,.1.05.249.134-.1.463-.168.973-.315,1.459a19.684,19.684,0,0,1-6.641,10.2,17.981,17.981,0,0,1-8.668,3.507,22.662,22.662,0,0,1-5.794.133,17.624,17.624,0,0,1-10.037-4.353,20.288,20.288,0,0,1-6.32-11.241,36.106,36.106,0,0,1-.831-9.4,27.089,27.089,0,0,1,5.109-15.029,17.488,17.488,0,0,1,11.26-7.054,19.007,19.007,0,0,1,15.006,3.135,16.585,16.585,0,0,1,6.717,10.159,51.853,51.853,0,0,1,.852,5.737c.209,1.813.312,3.638.456,5.458C719.134,756.444,719.118,756.688,719.118,757.1Zm-7.544-5.954a4.691,4.691,0,0,0,.056-.47,5.066,5.066,0,0,0-.026-.664,20.122,20.122,0,0,0-2.059-6.877,9.259,9.259,0,0,0-2.19-2.794,11.06,11.06,0,0,0-9.889-2.333,12.394,12.394,0,0,0-9.865,11.307,3.5,3.5,0,0,0,.136,1.83Z" transform="translate(-449.693 -730.176)" fill="#4d4d4d"/>
  <path id="Path_915" data-name="Path 915" d="M846.511,776.871h-7.042c-.027-.405-.073-.78-.073-1.154q-.009-11.3-.015-22.6c0-1.993-.035-3.988-.133-5.978a17.451,17.451,0,0,0-.943-4.873,6.39,6.39,0,0,0-5.2-4.5c-4.719-.766-8.835.456-11.969,4.256a10.693,10.693,0,0,0-2.248,5.288,28.2,28.2,0,0,0-.369,4.042c-.064,8.114-.081,16.229-.113,24.344-.005,1.3,0,1.305-1.337,1.306-1.58,0-3.159.007-4.738,0-.8-.005-.849-.068-.869-.848,0-.166,0-.332,0-.5q0-21.189,0-42.378c0-1.426-.012-1.259,1.259-1.263q2.245-.006,4.489,0c.808,0,.825.019.828.851.006,1.44,0,2.881,0,4.321v.859c.415.183.534-.095.694-.263.744-.781,1.447-1.606,2.226-2.35a15.5,15.5,0,0,1,9.632-4.391,18.671,18.671,0,0,1,8.482,1.164,10.37,10.37,0,0,1,6.345,7.213,30.867,30.867,0,0,1,.859,4.724,35.764,35.764,0,0,1,.187,4.142q.04,13.586.042,27.172C846.511,775.886,846.511,776.324,846.511,776.871Z" transform="translate(-532.599 -729.946)" fill="#4d4d4d"/>
  <path id="Path_916" data-name="Path 916" d="M580.461,752.946c.419-.344.7-.538.942-.779q2.622-2.665,5.227-5.348,4.605-4.735,9.2-9.477c.907-.934,1.822-1.86,2.711-2.81a2.421,2.421,0,0,1,1.914-.81c2.355.027,4.71.011,7.065.011h.713c-.242.293-.378.486-.542.651q-7.346,7.4-14.7,14.8c-.1.1-.2.192-.3.292-.81.838-.844,1.167-.214,2.181q8,12.876,16,25.751c.217.349.409.714.668,1.167a3.675,3.675,0,0,1-.681.15q-3.7.024-7.4.025a1.679,1.679,0,0,1-1.493-1.017c-1.057-1.819-2.135-3.625-3.208-5.435q-4.637-7.822-9.278-15.641c-.176-.3-.39-.572-.641-.937-.289.25-.5.412-.69.6-1.565,1.57-3.114,3.154-4.691,4.711a2.389,2.389,0,0,0-.75,1.843c.025,4.763.013,9.527.013,14.291,0,.194,0,.388,0,.582-.01.918-.01.907-.934.93-1.438.035-2.876.09-4.314.127a3.168,3.168,0,0,1-.742-.06c-.649-.139-.841-.356-.856-1.02-.017-.775.011-1.551.011-2.326q0-19.692.009-39.384c0-.71.114-1.42.172-2.1a37.3,37.3,0,0,1,6.609-.089c.026.32.077.664.077,1.008q.008,8.434.007,16.867C580.379,752.046,580.423,752.391,580.461,752.946Z" transform="translate(-382.891 -731.684)" fill="#4d4d4d"/>
  <path id="Path_917" data-name="Path 917" d="M297.227,733.886c-.2.215-.4.434-.614.644q-7.481,7.505-14.964,15.008c-.059.059-.118.117-.176.177-.564.577-.571.582-.154,1.254,1.3,2.094,2.611,4.181,3.908,6.276q6.386,10.31,12.764,20.625c.155.251.282.519.471.868-.338.024-.575.054-.812.054-2.328,0-4.656-.02-6.983.013a1.971,1.971,0,0,1-1.878-1.1q-6.185-10.478-12.4-20.939c-.194-.327-.426-.631-.7-1.039-.278.256-.5.449-.706.651-1,.958-1.953,1.963-2.993,2.87a7.508,7.508,0,0,0-2.487,6.162c.05,4.209.041,8.419.053,12.628a3.248,3.248,0,0,1-.062.463,38.4,38.4,0,0,1-6.565.051c-.019-.3-.057-.616-.058-.935q-.006-8.559,0-17.118,0-12.839,0-25.677c0-1.095,0-1.1,1.081-1.1,1.579,0,3.159,0,4.738,0,.863,0,.87.007.87.889q0,8.518.006,17.035a3.349,3.349,0,0,0,.106.895c.034.119.241.19.379.289.547-.634,1.037-1.258,1.585-1.826q4.588-4.753,9.2-9.484c2.2-2.267,4.41-4.521,6.58-6.815a2.951,2.951,0,0,1,2.412-1.014c2.132.063,4.267.019,6.4.019h.907Z" transform="translate(-187.486 -731.667)" fill="#4d4d4d"/>
  <path id="Path_918" data-name="Path 918" d="M376.4,732.44h6.326a18.945,18.945,0,0,1,.053,2.318c.012.8,0,1.606,0,2.41v2.293c.424.134.492-.174.629-.351.847-1.095,1.649-2.226,2.535-3.287a14.683,14.683,0,0,1,3.42-3,10.685,10.685,0,0,1,7.029-1.394.5.5,0,0,1,.517.533c0,2.322,0,4.645,0,7.007a4.7,4.7,0,0,1-.6.123c-.966.062-1.933.114-2.9.164a9.959,9.959,0,0,0-7.616,3.985,11.689,11.689,0,0,0-2.516,6.311c-.089,1.019-.156,2.043-.158,3.065q-.02,11.8-.007,23.6v.943a41.687,41.687,0,0,1-6.711.092c-.013-.015-.033-.035-.05-.057a.21.21,0,0,1-.046-.066.925.925,0,0,1-.056-.24q-.007-21.853-.008-43.707a4.342,4.342,0,0,1,.035-.5A1.133,1.133,0,0,1,376.4,732.44Z" transform="translate(-258.809 -730.188)" fill="#4d4d4d"/>
</svg>