<svg id="Component_52_1" data-name="Component 52 – 1" xmlns="http://www.w3.org/2000/svg" width="263.391" height="83.309" viewBox="0 0 263.391 83.309">
  <g id="Group_1664" data-name="Group 1664" transform="translate(117.112 20.125)">
    <path id="Path_906" data-name="Path 906" d="M1182.87,150.192l-17.834-25.277h.55q7.661,0,15.322-.007a.777.777,0,0,1,.729.381q4.823,6.982,9.666,13.949c.081.116.164.231.281.4.106-.149.195-.27.28-.394q4.79-7,9.574-14.012a.625.625,0,0,1,.587-.319q7.425.013,14.851.007c.123,0,.247.016.431.029-.675.937-1.314,1.825-1.955,2.712q-7.762,10.744-15.534,21.48a.667.667,0,0,0,.009.947q9.2,12.764,18.371,25.548c.081.112.154.229.28.417h-.515q-7.853,0-15.707.008a.756.756,0,0,1-.721-.386q-5.01-7.526-10.042-15.037c-.078-.117-.163-.23-.278-.39-.458.689-.9,1.347-1.332,2.007q-4.436,6.726-8.866,13.456a.607.607,0,0,1-.564.351q-7.917-.016-15.835-.009c-.1,0-.192-.01-.368-.019Z" transform="translate(-1072.198 -124.908)" fill="#4d4d4d"/>
    <path id="Path_907" data-name="Path 907" d="M920.725,147.4h22.533v11.181H920.715v17.5H906.246V125h40.091v11.154H920.725Z" transform="translate(-906.246 -124.964)" fill="#4d4d4d"/>
    <path id="Path_908" data-name="Path 908" d="M1079.25,125.026v11.441h-15.6V176.1h-14.506V136.5h-15.679V125.026Z" transform="translate(-988.075 -124.984)" fill="#4d4d4d"/>
  </g>
  <rect id="Rectangle_463" data-name="Rectangle 463" width="67.432" height="22.121" transform="translate(27.293)" fill="#4d4d4d"/>
  <rect id="Rectangle_464" data-name="Rectangle 464" width="48.523" height="22.121" transform="translate(27.472 30.505)" fill="#4d4d4d"/>
  <rect id="Rectangle_465" data-name="Rectangle 465" width="22.121" height="22.121" transform="translate(0 30.505)" fill="#4d4d4d"/>
  <rect id="Rectangle_466" data-name="Rectangle 466" width="22.121" height="22.121" transform="translate(27.472 61.188)" fill="#4d4d4d"/>
</svg>
