<svg id="Group_2934" data-name="Group 2934" xmlns="http://www.w3.org/2000/svg" width="303.397" height="70.143" viewBox="0 0 303.397 70.143">
  <path id="Path_3661" data-name="Path 3661" d="M309.192,596.508c1.579-1.6,2.668-3.76,5.482-3.744,3.645.028,6.049,1.927,6.2,5.594.168,3.954.08,7.921.1,11.89v2.984c1.134-1,1.885-1.595,2.562-2.272q10.683-10.659,21.347-21.328c3.863-3.838,6.641-3.937,10.457-.209,5.3,5.184,10.524,10.45,15.722,15.741,2.729,2.774,2.833,6.21.41,8.714a6.261,6.261,0,0,1-8.765-.318c-4.009-4.176-8.136-8.236-11.992-12.121l-20.589,20.4q9.922,9.8,20.482,20.235c3.723-3.722,7.751-7.711,11.733-11.744a6.656,6.656,0,0,1,5.1-2.3,5.8,5.8,0,0,1,4.673,9.019,14.282,14.282,0,0,1-1.595,1.841q-7.656,7.662-15.342,15.3c-3.528,3.49-6.41,3.561-9.954.062-7.364-7.276-14.644-14.644-21.956-21.964-.555-.555-1.16-1.054-2.3-2.073v8.937c0,1.831.049,3.66-.02,5.487a5.991,5.991,0,0,1-4.518,6.09c-2.872.57-5.136-.623-6.7-3.506a5.249,5.249,0,0,0-.544-.706Z" transform="translate(-309.186 -586.688)" fill="#4d4d4d"/>
  <path id="Path_3662" data-name="Path 3662" d="M504.722,613.73v24.107h-8.059V596.686H503.9c5.121,7.872,10.451,16.07,16.206,24.911V596.764h8.12V637.8h-7.211c-5.105-7.872-10.374-16-15.648-24.133C505.158,613.688,504.936,613.707,504.722,613.73Z" transform="translate(-224.833 -582.19)" fill="#4d4d4d"/>
  <path id="Path_3663" data-name="Path 3663" d="M377.409,596.757v16.329l.579.368c4.776-5.655,9.549-11.31,14.26-16.877h9.741c-4.727,5.706-9.127,11.019-13.664,16.5,4.785,8.14,9.57,16.287,14.6,24.846H394c-3.534-5.945-7.189-12.108-11.095-18.682-1.8,2.211-3.5,4.137-4.991,6.214a4.888,4.888,0,0,0-.447,2.6c-.049,3.233-.014,6.468-.014,9.889h-7.83V596.764Z" transform="translate(-281.995 -582.239)" fill="#4d4d4d"/>
  <path id="Path_3664" data-name="Path 3664" d="M483.812,618.476a69.073,69.073,0,0,1-1.541,10.453c-1.937,6.7-9.28,10.606-16.819,9.484a14.223,14.223,0,0,1-12.4-13.351c-.2-5.155-.206-10.334.029-15.488a14.247,14.247,0,0,1,13.816-13.219c8.378-.461,14.53,4.476,15.928,11.207A96.271,96.271,0,0,1,483.812,618.476Zm-8.782-1.061h.017c0-2.429.145-4.869-.036-7.284a6.465,6.465,0,0,0-6.43-6.417c-3.848-.22-6.8,1.6-7.139,5.437a97.143,97.143,0,0,0-.1,16.354c.336,4.093,3.458,6.01,7.6,5.7A6.58,6.58,0,0,0,475,624.7c.178-2.416.033-4.857.033-7.29Z" transform="translate(-244.524 -582.354)" fill="#4d4d4d"/>
  <path id="Path_3665" data-name="Path 3665" d="M398.236,596.669h7.933V599.8c0,7.411-.061,14.818.039,22.227a13.655,13.655,0,0,0,.973,5,6.878,6.878,0,0,0,6.906,4.019,7.131,7.131,0,0,0,6.09-5.585,17.46,17.46,0,0,0,.29-3.625c.028-7.308.013-14.614.013-21.922v-3.2H428.7v12.681c0,4.666.054,9.332-.012,14-.09,6.09-2.632,10.828-8.276,13.411a15.76,15.76,0,0,1-16.7-1.6,12.107,12.107,0,0,1-5.391-9.472C398.052,616.113,398.236,606.491,398.236,596.669Z" transform="translate(-269.146 -582.198)" fill="#4d4d4d"/>
  <path id="Path_3666" data-name="Path 3666" d="M457.3,609.351h-7.922c-.29-.555-.61-1.16-.916-1.772a6.61,6.61,0,0,0-7.769-3.823,6.014,6.014,0,0,0-5.256,5.837c-.251,4.949-.342,9.919-.126,14.868a6.454,6.454,0,0,0,5.5,6.7c3.652.648,6.182-.793,8-4.557.125-.265.212-.551.4-1.05h8.166c-1.354,6.726-4.885,11.233-11.66,12.58-6.371,1.267-11.939-.29-15.949-5.655a11.768,11.768,0,0,1-2.175-4.93,61.535,61.535,0,0,1-.1-19.677,14.021,14.021,0,0,1,12.559-11.423C450.056,595.433,456.223,601.559,457.3,609.351Z" transform="translate(-256.29 -582.349)" fill="#4d4d4d"/>
  <path id="Path_3667" data-name="Path 3667" d="M489.793,637.766h-7.577V596.733h7.577Z" transform="translate(-231.333 -582.169)" fill="#4d4d4d"/>
  <path id="Path_3668" data-name="Path 3668" d="M339.377,618.544a5.826,5.826,0,1,1,5.966-5.678A6.021,6.021,0,0,1,339.377,618.544Z" transform="translate(-298.342 -577.601)" fill="#4d4d4d"/>
</svg>
